<svg width="420" height="420" viewBox="0 0 420 420" fill="none" xmlns="http://www.w3.org/2000/svg">
<path d="M204.228 140.959L218.298 147.289L222.168 153.619L228.498 156.079L229.198 162.769L226.738 166.639L221.818 167.639L211.258 163.419V162.009L217.258 159.549L215.128 152.239L205.638 148.719L201.418 143.089L204.228 140.959ZM292.848 303.439L281.598 298.859L267.878 293.939H257.008L246.808 291.829L235.558 294.289L229.228 294.639H225.358L217.978 298.859L210.978 301.679L201.488 295.679L203.948 285.829L197.948 283.369H190.948L189.808 280.239L190.518 273.909L188.008 270.379L183.088 271.079L181.678 274.599L175.678 274.949L170.398 268.619L168.288 260.179L173.568 250.329L183.758 251.039L186.578 253.499H190.798L196.068 250.329L200.638 251.739L207.008 262.639L209.478 262.289L208.768 254.199L206.658 249.979L207.368 243.299L220.368 237.669L222.128 224.669L227.748 220.099L232.328 212.009L235.838 211.309L243.928 206.029L244.278 203.219L238.658 203.569L237.598 200.759H233.728L227.728 202.159L230.548 197.589L242.858 194.079L245.668 190.909L250.588 198.649L253.758 201.809L258.678 200.409L256.568 195.829L249.188 190.559L240.748 181.059L231.948 175.059L223.508 173.649L219.288 169.429L213.668 168.019L212.958 169.429L212.258 179.629L213.668 183.139L210.498 194.399L203.498 188.769L204.498 183.849L197.118 180.329L194.008 176.479L195.768 167.689L205.968 160.299L206.668 151.859L202.798 152.219L200.338 149.049L199.338 143.779L196.878 143.419L195.468 149.049L191.598 149.749L189.838 137.449L187.008 135.689L182.088 133.579L176.458 136.389L183.458 143.069L184.868 149.069L172.208 139.579L163.418 130.079L162.708 120.589L153.568 117.769L146.568 122.339C144.86 123.373 143.097 124.314 141.288 125.159C139.528 125.859 132.848 126.559 132.848 126.559L131.438 132.559L123.358 132.909L124.058 136.779L137.058 138.889L143.738 146.279V158.589L139.868 169.489L140.578 181.089L130.728 198.329L128.618 223.999L131.788 238.769L136.358 250.019L141.628 250.729L139.868 245.099L137.058 240.879L135.298 233.139L138.468 232.439L143.388 245.099L146.908 256.349V265.499L153.588 273.579L165.588 282.379L183.828 287.239L189.458 292.509L193.678 298.139L200.008 302.009L207.748 304.119L215.488 303.769C215.488 303.769 215.128 307.289 215.128 309.039C215.128 310.789 210.208 316.779 210.208 316.779L206.338 323.779L209.148 331.519L216.888 334.689L227.788 345.939L232.718 348.049V353.319L233.328 355.779C260.687 351.36 286.249 339.328 307.088 321.059L307.268 318.509L316.768 301.279L312.198 298.109L292.848 303.439ZM329.428 164.519L325.558 157.839L320.638 150.109L319.228 139.559L325.558 140.609L325.908 137.089L321.338 136.739L325.208 134.979L329.428 132.519V129.009L325.208 123.379L324.308 115.809C303.867 90.7999 275.818 73.151 244.426 65.5463C213.034 57.9416 180.018 60.7972 150.398 73.6787L158.508 79.4187L153.588 85.7487L146.908 87.1587L146.198 96.6487L143.388 97.7087L139.868 101.579L140.228 107.909L146.228 108.609L143.768 114.609H149.768L159.968 101.609L161.028 95.9787L170.868 95.2687L173.328 91.0487L183.528 89.9987L184.588 83.9987L191.968 83.6487C191.968 83.6487 197.248 80.8387 198.298 80.8387C199.348 80.8387 204.298 82.5887 204.298 82.5887L209.578 86.8087H216.958L223.288 82.9487L231.378 83.6487C232.536 84.4227 233.863 84.9064 235.248 85.0587C237.008 85.0587 242.248 82.5887 242.248 82.5887L252.448 88.9187L256.668 92.0887V97.3587L261.948 98.0687L263.698 94.8987L268.278 97.0087L267.918 99.8287L257.368 102.639L263.368 110.379L276.028 117.379L281.308 124.379L289.048 125.089L290.798 121.569L293.618 120.869L284.468 113.869L278.848 113.169L283.418 111.759L279.198 105.759L285.198 105.399L292.928 109.619L294.688 118.059L298.558 122.639L301.728 132.829L309.458 138.459V150.069L317.548 155.339L317.198 159.209L316.138 163.779L318.248 170.109L318.958 173.279L324.958 174.279L327.768 168.279L329.428 164.519ZM334.008 129.099V131.099L332.248 136.719L333.308 141.649L337.168 143.049V149.729L332.948 147.979L331.898 166.979L327.678 174.709L330.488 184.559L335.058 188.779V207.779L339.638 222.549L344.558 233.809L352.648 235.909L355.458 228.909L356.608 228.009C357.368 221.898 357.748 215.746 357.748 209.589C357.796 181.026 349.549 153.064 334.008 129.099ZM252.768 126.899L229.558 116.699L219.358 117.049L216.898 123.729L212.678 119.159L204.938 120.919L204.238 132.519L210.568 137.089L215.138 130.409L220.418 135.689L231.318 145.179L233.428 155.379L242.568 166.989L257.338 164.519L257.008 159.239L253.848 153.239L253.108 139.239L256.628 133.239L252.768 126.899ZM271.768 134.629L266.498 133.229L261.928 137.089L264.388 147.289H268.958L271.768 134.629ZM304.478 141.309L292.478 134.979L290.008 130.759L287.198 131.819L289.658 138.819L291.768 147.969L297.038 150.079L298.098 148.669L295.008 143.419L304.158 146.939L304.478 141.309ZM201.768 268.239L200.358 269.649L210.908 272.809L215.128 277.729L221.818 278.439L224.278 274.569L216.188 273.239L201.768 268.239ZM233.068 274.919L225.678 277.029L226.738 279.839H235.878L237.638 277.029L234.478 277.379L233.068 274.919Z" fill="#0D7C66"/>
<path d="M314.337 314.337C372.205 256.469 372.205 162.647 314.337 104.779C256.469 46.9112 162.647 46.9112 104.779 104.779C46.9112 162.647 46.9112 256.469 104.779 314.337C162.647 372.205 256.469 372.205 314.337 314.337Z" stroke="#0D7C66" stroke-linecap="round" stroke-linejoin="round"/>
</svg>
